<svg viewBox="-48 -52 100 108" fill="none" xmlns="http://www.w3.org/2000/svg">
  <g transform="rotate(-18)">
    
    <path d="M-32 -38 C-32 -41.3 -29.3 -44 -26 -44 H26 C29.3 -44 32 -41.3 32 -38 V44 H-32 V-38 Z" fill="#000000" opacity="0.4" transform="translate(4, 4)"/>

    <path d="M-32 -38 C-32 -41.3 -29.3 -44 -26 -44 H26 C29.3 -44 32 -41.3 32 -38 V44 H-32 V-38 Z" fill="#2A2A2A"/>
    
    <rect x="-22" y="-36" width="44" height="4" rx="1.5" fill="#151515"/>
    <rect x="-22" y="-28" width="44" height="4" rx="1.5" fill="#151515"/>

    <rect x="-26" y="-16" width="52" height="50" rx="2" fill="#D32F2F"/>
    
    <path d="M-4 -3 V8 H-11 L0 19 L11 8 H4 V-3 Z" fill="#F5F5DC"/>

    <rect x="-32" y="38" width="64" height="6" fill="#111111"/>
    <rect x="-24" y="39" width="8" height="5" rx="1" fill="#FFD700"/>
    <rect x="-10" y="39" width="8" height="5" rx="1" fill="#FFD700"/>
    <rect x="4" y="39" width="8" height="5" rx="1" fill="#FFD700"/>
    <rect x="18" y="39" width="8" height="5" rx="1" fill="#FFD700"/>
    
  </g>
</svg>
